<?xml version="1.0" standalone="no"?>
<!DOCTYPE svg PUBLIC "-//W3C//DTD SVG 20010904//EN"
 "http://www.w3.org/TR/2001/REC-SVG-20010904/DTD/svg10.dtd">
<svg version="1.0" xmlns="http://www.w3.org/2000/svg"
 width="440.000000pt" height="440.000000pt" viewBox="0 0 440.000000 440.000000"
 preserveAspectRatio="xMidYMid meet">
<metadata>
Created by potrace 1.11, written by Peter Selinger 2001-2013
</metadata>
<g transform="translate(0.000000,440.000000) scale(0.100000,-0.100000)"
fill="#000000" stroke="none">
<path d="M1373 3817 c-17 -9 -24 -26 -33 -77 -6 -36 -11 -77 -12 -92 -1 -16
-6 -28 -11 -28 -5 0 -7 7 -3 15 3 8 2 15 -3 15 -5 0 -8 8 -8 18 1 23 -14 84
-19 79 -3 -3 -21 -1 -40 3 -18 4 -34 4 -34 -1 0 -4 -7 -6 -15 -3 -9 4 -16 -2
-20 -18 -10 -39 -12 -99 -4 -104 4 -2 5 -14 2 -27 -3 -12 -5 -35 -5 -52 0 -30
0 -30 -16 8 -9 22 -20 36 -27 33 -7 -2 -18 1 -24 7 -8 8 -11 8 -11 -1 0 -6 -6
-9 -14 -6 -9 3 -22 -5 -32 -20 -14 -23 -16 -41 -10 -129 4 -56 8 -117 7 -134
0 -18 3 -33 7 -33 4 0 8 -42 9 -93 2 -103 10 -157 23 -157 10 0 8 -19 -3 -37
-5 -8 -4 -13 2 -13 6 0 11 -7 11 -16 0 -8 5 -12 10 -9 9 6 14 -8 11 -27 0 -5
3 -8 8 -8 13 0 21 -27 15 -45 -4 -8 -11 -15 -18 -15 -11 0 -14 -11 -20 -89 -2
-23 -13 -42 -33 -60 -30 -26 -63 -86 -63 -114 0 -9 -4 -18 -10 -22 -5 -3 -7
-12 -3 -20 3 -9 1 -21 -5 -28 -5 -6 -9 -19 -10 -27 0 -8 -3 -35 -7 -60 -4 -25
-8 -56 -10 -70 -1 -14 -4 -27 -5 -30 -1 -3 -2 -9 -1 -14 1 -5 -1 -16 -5 -25
-3 -9 -7 -38 -9 -66 -1 -27 -6 -99 -10 -160 -10 -143 -12 -319 -4 -372 4 -27
2 -44 -5 -47 -7 -3 -6 -5 2 -5 9 -1 10 -6 2 -20 -7 -15 -7 -22 2 -28 7 -4 14
-24 15 -43 1 -19 3 -47 4 -62 1 -16 6 -28 11 -28 5 0 7 -4 4 -8 -3 -5 0 -26 6
-48 6 -21 11 -42 10 -46 -1 -5 2 -8 7 -8 5 0 11 -10 14 -22 3 -13 13 -43 22
-68 9 -25 17 -53 18 -62 1 -9 4 -15 8 -12 4 2 13 -9 21 -26 7 -16 17 -30 21
-30 5 0 6 -4 3 -8 -3 -5 6 -20 20 -35 13 -14 24 -31 24 -37 0 -5 4 -10 9 -10
13 0 52 -70 46 -81 -4 -5 1 -6 9 -3 18 7 92 -59 132 -119 16 -23 35 -48 42
-55 6 -7 12 -21 12 -31 0 -9 5 -22 11 -28 6 -6 11 -17 13 -25 2 -18 30 -48 44
-48 6 0 12 -5 14 -12 2 -6 11 -12 19 -13 7 -2 43 -10 79 -20 36 -9 108 -19
160 -21 87 -4 122 -7 205 -19 32 -5 120 -11 270 -20 127 -8 549 -7 579 1 16 4
33 1 43 -7 9 -8 14 -9 11 -3 -4 6 7 10 30 10 20 0 62 4 92 8 30 4 85 8 123 9
37 0 67 4 67 8 0 4 12 6 28 5 15 -2 31 -1 36 2 6 3 19 7 30 8 12 1 53 10 91
19 39 9 78 17 88 18 9 1 17 5 17 9 0 4 6 8 13 8 17 0 59 35 51 43 -3 3 -7 11
-8 19 -8 36 -19 68 -25 68 -3 0 -12 12 -18 27 -15 34 -121 149 -134 146 -5 -2
-9 1 -9 6 0 12 -142 112 -153 109 -5 -2 -13 5 -18 15 -6 9 -17 17 -24 17 -8 0
-15 5 -15 11 0 5 -4 7 -10 4 -5 -3 -22 2 -37 12 -15 10 -28 17 -30 15 -2 -1
-33 11 -69 28 -37 16 -69 30 -73 30 -17 0 -118 48 -134 63 -18 18 -18 19 1 35
52 44 63 52 67 52 2 0 31 26 64 58 52 50 77 83 128 167 19 32 46 89 49 105 6
30 28 60 41 55 7 -3 20 -8 28 -11 17 -7 85 58 85 82 0 8 5 14 10 14 6 0 10 4
10 9 0 5 5 22 12 38 6 15 12 33 14 38 1 6 14 45 27 87 31 94 29 164 -4 213
-19 27 -28 32 -55 30 -18 -1 -41 -8 -50 -16 -15 -12 -16 -11 -10 18 4 17 7
100 8 184 0 85 5 160 11 167 6 8 6 12 -1 12 -6 0 -9 12 -7 28 2 15 -3 52 -12
82 -9 30 -15 69 -14 86 1 22 -8 41 -29 65 -16 19 -30 39 -31 44 -3 41 -28 104
-49 125 -3 3 -12 19 -21 35 -9 17 -21 29 -27 28 -7 -2 -12 4 -12 12 0 8 -4 15
-8 15 -5 0 -17 8 -28 18 -10 10 -27 21 -37 25 -9 3 -22 18 -27 32 -5 14 -16
25 -25 25 -8 0 -15 5 -15 11 0 5 -4 7 -10 4 -5 -3 -10 1 -10 9 0 9 -3 15 -7
15 -22 -4 -72 28 -91 57 -12 19 -27 34 -32 34 -6 0 -10 7 -10 15 0 8 -12 23
-27 32 -15 10 -40 30 -55 46 -16 15 -33 27 -38 27 -5 0 -21 5 -37 12 -15 6
-55 12 -88 12 -33 1 -66 5 -73 9 -6 5 -12 4 -12 -2 0 -6 -7 -7 -17 -4 -9 4
-14 2 -11 -3 4 -5 -10 -9 -30 -8 -43 2 -108 -21 -116 -42 -3 -8 -12 -14 -21
-14 -8 0 -15 -7 -15 -15 0 -7 -8 -18 -17 -24 -10 -5 -17 -13 -15 -18 5 -17
-18 -59 -52 -96 -20 -21 -36 -35 -36 -31 0 3 -7 1 -15 -6 -8 -7 -15 -9 -15 -6
0 4 -7 1 -15 -6 -38 -34 -47 -39 -61 -34 -9 3 -12 1 -9 -4 3 -6 2 -10 -4 -10
-5 0 -16 12 -23 28 -10 19 -21 27 -40 27 -15 1 -30 4 -34 8 -15 15 -96 -53
-108 -91 -11 -34 -79 -15 -82 22 0 6 -6 24 -13 39 -6 16 -9 32 -6 37 3 5 1 11
-5 15 -11 7 -14 48 -3 59 8 7 12 26 17 71 2 17 6 37 10 45 5 15 8 29 28 125
15 78 16 108 5 130 -14 26 -33 45 -40 39 -5 -5 -31 -12 -53 -13 -10 -1 -20
-19 -29 -59 -2 -7 -11 -37 -21 -67 -15 -50 -19 -73 -23 -140 -1 -14 -4 -16
-12 -8 -9 9 -9 34 0 100 6 48 11 104 11 124 0 19 3 46 8 59 11 29 -24 104 -45
96 -7 -3 -15 -1 -18 4 -7 12 -13 11 -42 -3z m-47 -242 c-1 -42 -16 -48 -16 -7
0 24 7 42 15 42 1 0 2 -16 1 -35z m446 -568 c-12 -13 -22 -27 -22 -32 0 -4
-14 -21 -30 -37 -17 -16 -28 -33 -25 -37 2 -5 -5 -21 -17 -37 -14 -17 -23 -43
-23 -68 -1 -23 -9 -66 -18 -96 -19 -64 -23 -123 -12 -164 13 -48 10 -281 -3
-282 -7 -1 -14 -3 -17 -4 -3 -1 -8 -3 -12 -4 -5 -1 -14 -5 -21 -10 -7 -4 -16
-5 -19 -2 -4 3 -1 6 6 6 8 0 9 5 2 17 -5 10 -5 26 0 40 4 12 8 42 8 65 -2 65
4 128 10 128 3 0 6 27 6 60 0 33 -3 60 -7 60 -5 0 -8 6 -8 14 0 8 -9 21 -20
29 -16 11 -20 24 -19 53 1 22 -5 53 -14 70 -14 28 -14 34 -2 44 8 6 22 13 32
15 10 1 17 8 15 14 -1 6 14 19 33 28 19 9 35 20 35 25 0 4 7 8 15 8 8 0 15 5
15 10 0 6 6 10 12 10 7 0 33 23 59 50 25 28 50 50 54 50 5 0 -1 -10 -13 -23z
m-194 -1180 c45 -95 77 -124 120 -109 27 9 52 -4 52 -27 0 -13 63 -135 73
-139 4 -2 7 -8 7 -14 0 -21 157 -198 176 -198 5 0 20 -12 33 -25 13 -14 26
-24 28 -21 3 2 13 -3 24 -12 18 -16 18 -17 1 -23 -30 -11 -132 10 -201 43 -36
18 -68 35 -71 38 -3 4 -26 19 -52 34 -108 62 -213 203 -237 314 -16 79 -14
222 4 222 2 0 21 -37 43 -83z"/>
<path d="M2003 533 c9 -2 25 -2 35 0 9 3 1 5 -18 5 -19 0 -27 -2 -17 -5z"/>
</g>
</svg>
